<svg width="154" height="25" viewBox="0 0 154 25" fill="none" xmlns="http://www.w3.org/2000/svg">
<g clip-path="url(#clip0_2370_517)">
<path d="M7.96378 8.70417C7.96378 8.37448 7.8519 8.09039 7.62767 7.85096C7.40344 7.61248 7.12566 7.49229 6.79386 7.49229C5.74872 7.49229 4.66199 8.60536 3.53367 10.831C2.48901 12.8424 1.96596 14.441 1.96596 15.6277C1.96596 16.6999 2.33076 17.2353 3.06082 17.2353C4.08922 17.2353 5.1181 16.1963 6.1465 14.1194C6.84358 12.7018 7.39149 11.2015 7.78927 9.61914C7.90497 9.15738 7.96378 8.85239 7.96378 8.70417ZM10.9749 14.9355V14.9854C10.9586 15.0182 10.95 15.0429 10.95 15.059C10.602 15.8999 10.1454 16.6168 9.5812 17.2106C8.86787 17.9365 8.12107 18.2985 7.34129 18.2985C6.44532 18.2985 5.99781 17.7631 5.99781 16.6913C5.99781 16.4115 6.0222 16.1388 6.07192 15.8752C4.96081 17.4909 3.74977 18.2985 2.43833 18.2985C1.65854 18.2985 1.04513 17.9935 0.597152 17.384C0.199369 16.8562 0 16.1887 0 15.3806C0 13.7322 0.721937 11.9108 2.16485 9.91557C3.70817 7.80536 5.27588 6.75073 6.86844 6.75073C7.54878 6.75073 8.12107 7.04764 8.58579 7.64099C8.71822 7.14645 8.98405 6.89895 9.38231 6.89895C10.1454 6.89895 10.5269 7.03149 10.5269 7.29467C10.5269 7.34455 10.3361 7.93743 9.9546 9.07472C8.47726 13.4766 7.73955 16.0073 7.73955 16.6666C7.73955 16.9797 7.85525 17.1365 8.08808 17.1365C8.55185 17.1365 9.08732 16.716 9.69308 15.8752C10.2988 15.0343 10.6096 14.6139 10.6263 14.6139C10.8587 14.6139 10.9749 14.7217 10.9749 14.9355Z" fill="#8491A0"/>
<path d="M23.6173 5.04432C23.6173 3.65999 23.2812 2.66664 22.61 2.06522C21.9373 1.46332 20.9208 1.17068 19.5611 1.18731C18.4992 1.18731 17.9681 1.41819 17.9681 1.87947V8.9265C18.5819 9.02579 19.0295 9.07472 19.312 9.07472C22.1988 9.05904 23.6336 7.7151 23.6173 5.04432ZM26.5543 5.04432C26.5543 8.3417 24.3053 9.98968 19.8097 9.98968C19.2283 9.98968 18.6149 9.95738 17.9681 9.89135V14.2928C17.9681 15.8424 18.242 16.7327 18.7894 16.9636C18.8224 16.9797 19.1791 17.0871 19.8599 17.2852C20.2577 17.384 20.448 17.5161 20.4322 17.6804C20.4155 17.8785 20.2826 17.9773 20.0335 17.9773H13.2645C13.0159 17.9773 12.8829 17.8785 12.8667 17.6804C12.85 17.5161 13.0407 17.384 13.439 17.2852C14.1188 17.0871 14.4755 16.9797 14.509 16.9636C15.0564 16.7327 15.3299 15.8424 15.3299 14.2928V4.15453C15.3299 2.60489 15.0564 1.71462 14.509 1.48374C14.4755 1.46759 14.1188 1.35975 13.439 1.16213C13.0407 1.06332 12.85 0.93173 12.8667 0.766409C12.8829 0.568309 13.0159 0.469971 13.2645 0.469971H20.5565C22.282 0.469971 23.6752 0.824366 24.7371 1.53315C25.9481 2.32412 26.5543 3.49467 26.5543 5.04432Z" fill="#8491A0"/>
<path d="M32.7154 17.6802C32.6986 17.8783 32.5657 17.9771 32.3171 17.9771H26.9418C26.6927 17.9771 26.5598 17.8783 26.5435 17.6802C26.5268 17.5486 26.7176 17.4327 27.1158 17.3339C27.6298 17.2189 27.9869 17.0954 28.1858 16.9633C28.3847 16.8317 28.4928 16.4688 28.5095 15.875V14.2926V2.89299C28.5095 2.44834 28.4679 2.15522 28.3847 2.01508C28.302 1.87541 28.0529 1.8051 27.6389 1.8051C27.0078 1.8051 26.6927 1.70582 26.6927 1.50819C26.6927 1.29442 26.8916 1.14572 27.2899 1.06306C28.2523 0.864968 29.198 0.593234 30.1274 0.247391C30.2431 0.214137 30.3349 0.19751 30.4009 0.19751C30.5663 0.19751 30.6662 0.292522 30.6997 0.48207C30.7327 0.671619 30.7494 1.07162 30.7494 1.68159V14.2926C30.7494 15.9581 30.857 16.8479 31.0726 16.9633C31.1888 17.0294 31.5459 17.1363 32.1431 17.285C32.5413 17.4004 32.7316 17.532 32.7154 17.6802Z" fill="#8491A0"/>
<path d="M40.057 14.6746V11.9187C38.8292 12.1487 37.9084 12.4275 37.295 12.7553C36.2996 13.3135 35.8019 14.0841 35.8019 15.0684C35.8019 15.5933 35.9549 16.0157 36.2618 16.3354C36.5688 16.6556 36.9876 16.8152 37.5187 16.8152C38.1819 16.8152 38.7714 16.61 39.2858 16.2C39.7998 15.79 40.057 15.2812 40.057 14.6746ZM44.6109 16.2708C44.1634 17.5406 43.3832 18.1748 42.2721 18.1748C41.0777 18.1748 40.3472 17.5739 40.0823 16.3696C38.8206 17.5739 37.5436 18.1748 36.2494 18.1748C35.4199 18.1748 34.7644 17.9368 34.2834 17.4598C33.802 16.9829 33.5615 16.333 33.5615 15.5107C33.5615 14.0142 34.3743 12.8959 36.0008 12.1553C36.9297 11.7444 38.2818 11.4233 40.057 11.1933C40.1067 9.63084 39.9824 8.61944 39.6836 8.15864C39.435 7.74771 38.8713 7.55056 37.9916 7.56671C37.261 7.58334 36.7801 7.81422 36.5477 8.25935C36.432 8.67122 36.3154 9.08358 36.1997 9.49545C36.0338 9.94058 35.6771 10.1634 35.1292 10.1634C34.3991 10.1634 34.0348 9.85032 34.0348 9.22324C34.0348 8.41612 34.5406 7.78951 35.5523 7.34438C36.3321 7.01469 37.2118 6.84985 38.1905 6.84985C40.8784 6.866 42.2223 7.78714 42.2223 9.61279V15.7054C42.2223 16.5938 42.4709 17.0294 42.9686 17.0128C43.3005 17.0128 43.5782 16.8361 43.8025 16.4812C44.0267 16.1273 44.1883 15.9496 44.2882 15.9496C44.3872 15.9496 44.4747 15.9867 44.5493 16.0608C44.6238 16.1349 44.6444 16.2057 44.6109 16.2708Z" fill="#8491A0"/>
<path d="M54.3755 16.2797C53.2969 17.6754 51.9697 18.3728 50.3939 18.3728C48.7511 18.3728 47.4406 17.8531 46.4615 16.8117C45.4823 15.7714 44.9932 14.4165 44.9932 12.7476C44.9932 11.0792 45.5368 9.6749 46.6235 8.53476C47.7098 7.39556 49.091 6.83309 50.7668 6.84972C51.5298 6.84972 52.2766 7.01457 53.0072 7.34426C53.9194 7.75661 54.3755 8.30008 54.3755 8.97656C54.3755 9.61884 54.0437 9.94046 53.3801 9.94046C52.9819 9.94046 52.6711 9.75138 52.4469 9.37181C52.2226 8.99271 52.0118 8.61361 51.8124 8.23404C51.5141 7.83879 51.0986 7.64069 50.5679 7.64069C49.4726 7.64069 48.6435 8.16991 48.0794 9.22692C47.6481 10.0706 47.4325 11.0953 47.4325 12.3015C47.4325 13.6236 47.6974 14.74 48.229 15.6483C48.8592 16.7723 49.78 17.3343 50.991 17.3343C51.6876 17.3343 52.3517 17.0839 52.9819 16.5842C53.1143 16.4673 53.5207 16.0417 54.2015 15.3082C54.2847 15.2246 54.3593 15.1828 54.4252 15.1828C54.5749 15.1828 54.6495 15.3077 54.6495 15.5566C54.6495 15.806 54.5582 16.0469 54.3755 16.2797Z" fill="#8491A0"/>
<path d="M63.3547 10.5554C63.2548 8.59627 62.4669 7.62478 60.9905 7.64093C59.398 7.65755 58.4437 8.79485 58.1281 11.0537H61.2391C62.6663 11.0537 63.371 10.8875 63.3547 10.5554ZM65.719 11.5972C65.719 11.7792 65.6276 11.886 65.445 11.9188H64.8976H58.0291C58.0124 12.1497 58.0043 12.3231 58.0043 12.4381C58.0043 13.7906 58.2529 14.886 58.7506 15.7274C59.3807 16.7654 60.3264 17.2851 61.5881 17.2851C62.4172 17.2851 63.1224 17.1036 63.7033 16.7411C64.0021 16.543 64.441 16.1392 65.0219 15.5293C65.0879 15.4637 65.1625 15.4305 65.2456 15.4305C65.4613 15.4305 65.5698 15.5293 65.5698 15.7274C65.5698 15.7929 65.5445 15.8675 65.4952 15.9492C64.549 17.5487 63.0559 18.3397 61.0154 18.3236C59.3889 18.3065 58.0789 17.7839 57.0835 16.7535C56.088 15.7231 55.5903 14.4081 55.5903 12.8091C55.5903 11.1606 56.0794 9.76777 57.0581 8.63C58.1037 7.42715 59.4391 6.83333 61.0651 6.84995C62.3091 6.84995 63.3461 7.2205 64.1761 7.96254C65.1878 8.85233 65.7022 10.0642 65.719 11.5972Z" fill="#8491A0"/>
<path d="M80.302 1.6076C80.302 1.85463 80.215 2.07316 80.0405 2.26271C79.866 2.45226 79.6547 2.54727 79.4056 2.54727C79.0078 2.54727 78.6923 2.25891 78.4604 1.68171C78.228 1.10451 77.9211 0.816151 77.54 0.816151C76.6771 0.816151 75.9962 1.32066 75.4985 2.33017C75.3164 2.67791 75.0262 3.54679 74.6274 4.93682L73.9562 7.27031H76.4194C76.635 7.27031 76.7435 7.37245 76.7435 7.57577C76.7435 7.91591 76.5604 8.08599 76.1951 8.08599H73.7573L71.2683 17.4057C70.6869 19.5753 70.1151 21.1781 69.5514 22.2138C68.522 24.0708 67.2364 25 65.6931 25C65.1127 25 64.5982 24.8352 64.1503 24.5055C63.7023 24.1753 63.4785 23.7387 63.4785 23.1948C63.4785 22.4532 63.8146 22.0822 64.4854 22.0822C64.9444 22.0822 65.2312 22.2632 65.3455 22.6261C65.378 22.7577 65.3948 23.1121 65.3948 23.6893C65.3948 24.0684 65.5697 24.2584 65.9192 24.2584C66.6192 24.2584 67.2355 23.6323 67.7681 22.3815C68.0019 21.8385 68.2935 20.9083 68.6425 19.5914L71.6914 8.08599H69.1029C68.9538 8.08599 68.8787 7.9924 68.8787 7.8057C68.8787 7.44846 69.0365 7.27031 69.3525 7.27031H71.841C72.5037 5.14347 73.151 3.58575 73.7812 2.59668C74.8598 0.865082 76.1951 0 77.7882 0C78.3691 0 78.9079 0.123991 79.4056 0.370545C80.0032 0.667458 80.302 1.07981 80.302 1.6076Z" fill="#8491A0"/>
<path d="M82.693 9.52013C82.693 8.16811 82.2365 7.4921 81.3242 7.4921C80.2791 7.4921 79.3162 8.58901 78.4379 10.7809C77.6906 12.6441 77.3172 14.2018 77.3172 15.4545C77.3172 16.8892 77.8063 17.6061 78.786 17.6061C79.8144 17.6061 80.7601 16.4935 81.623 14.2678C82.3364 12.3885 82.693 10.8061 82.693 9.52013ZM84.5094 10.8308C84.5094 12.5453 83.9959 14.169 82.9665 15.7021C81.8052 17.4327 80.4034 18.2987 78.7606 18.2987C77.6825 18.2987 76.853 17.8697 76.2721 17.0123C75.7409 16.2707 75.4756 15.3481 75.4756 14.2427C75.4756 12.5453 75.9986 10.9135 77.0438 9.3472C78.2218 7.59946 79.6236 6.72583 81.2492 6.72583C82.3278 6.72583 83.1573 7.15481 83.7382 8.01134C84.2526 8.77048 84.5094 9.70967 84.5094 10.8308Z" fill="#8491A0"/>
<path d="M94.5867 8.08586C94.5867 8.38277 94.4997 8.65449 94.3252 8.90247C94.1516 9.14903 93.9226 9.27303 93.6405 9.27303C93.3589 9.27303 93.1428 9.1001 92.9937 8.75378C92.844 8.40794 92.6451 8.23455 92.397 8.23455C91.4838 8.23455 89.9907 11.4821 87.9176 17.9771H85.9761C86.4738 16.312 86.9715 14.6388 87.4692 12.9576C88.249 10.3035 88.6386 8.81126 88.6386 8.48157C88.6386 8.20176 88.5143 8.06115 88.2657 8.06115C87.8177 8.06115 87.3946 8.33335 86.9958 8.8773C86.8634 9.04262 86.5981 9.49535 86.2003 10.2374C86.1004 10.435 85.9593 10.5339 85.7772 10.5339C85.5281 10.5339 85.4038 10.435 85.4038 10.2374L85.4281 10.1381C85.6438 9.31435 86.0669 8.56472 86.698 7.88823C87.4104 7.14619 88.1658 6.77563 88.9623 6.77563C89.841 6.77563 90.2809 7.27873 90.2809 8.28396C90.2809 8.59702 90.223 8.98514 90.1073 9.44595C89.9907 9.84168 89.8831 10.2293 89.7832 10.6084C91.0439 8.05354 92.2306 6.77563 93.3417 6.77563C93.707 6.77563 94.0058 6.90342 94.2382 7.15901C94.47 7.41459 94.5867 7.72338 94.5867 8.08586Z" fill="#8491A0"/>
<path d="M117.307 17.6804C117.291 17.8785 117.158 17.9773 116.909 17.9773H110.339C110.09 17.9773 109.957 17.8785 109.941 17.6804C109.924 17.516 110.115 17.384 110.513 17.2852C111.193 17.0871 111.55 16.9797 111.583 16.9635C112.131 16.7327 112.404 15.8429 112.404 14.2928V2.62152L105.983 17.6557C105.835 18.002 105.718 18.1749 105.635 18.1749C105.552 18.1749 105.412 17.9526 105.212 17.5075L99.6876 4.8961C99.3888 4.22057 99.09 3.65192 98.7912 3.18969L98.9408 14.2928C98.9575 15.0842 98.991 15.6201 99.0407 15.9004C99.1564 16.4438 99.3974 16.7992 99.7627 16.9635C99.7952 16.9797 100.152 17.0871 100.832 17.2852C101.23 17.384 101.421 17.516 101.405 17.6804C101.388 17.8785 101.256 17.9773 101.006 17.9773H95.6811C95.4325 17.9773 95.2991 17.8785 95.2833 17.6804C95.2661 17.516 95.4569 17.384 95.8556 17.2852C96.5355 17.0871 96.8921 16.9797 96.9256 16.9635C97.2899 16.7992 97.5309 16.4277 97.6466 15.8505C97.713 15.5707 97.7465 15.0514 97.7465 14.2928L97.8708 2.12651C97.6055 1.9132 97.2153 1.698 96.7014 1.48375C96.3366 1.38494 95.9799 1.27805 95.6314 1.16214C95.2326 1.06332 95.0423 0.931728 95.0591 0.766407C95.0749 0.568307 95.2082 0.469971 95.4569 0.469971H98.4431C99.5709 0.487072 100.218 0.540279 100.384 0.63054C100.549 0.721752 100.799 1.15406 101.131 1.92888L106.432 14.2681L112.156 0.840992C112.255 0.593487 112.479 0.469971 112.827 0.469971H116.909C117.158 0.469971 117.291 0.568307 117.307 0.766407C117.323 0.931728 117.133 1.06332 116.735 1.16214C116.054 1.36024 115.698 1.4676 115.665 1.48375C115.117 1.7151 114.843 2.60537 114.843 4.15453V14.2928C114.843 15.8429 115.117 16.7327 115.665 16.9635C115.698 16.9797 116.054 17.0871 116.735 17.2852C117.133 17.384 117.323 17.516 117.307 17.6804Z" fill="#8491A0"/>
<path d="M126.814 12.6235C126.814 11.252 126.589 10.1285 126.141 9.252C125.561 8.11234 124.656 7.54226 123.429 7.54226C122.201 7.54226 121.297 8.12896 120.717 9.30236C120.269 10.1784 120.045 11.2933 120.045 12.6487C120.045 13.9703 120.269 15.0696 120.717 15.9451C121.314 17.0691 122.218 17.6311 123.429 17.6311C124.656 17.6311 125.561 17.0691 126.141 15.9451C126.589 15.0696 126.814 13.9622 126.814 12.6235ZM129.202 12.4748C129.202 14.1598 128.655 15.5641 127.56 16.6881C126.465 17.8116 125.071 18.3731 123.379 18.3731C121.687 18.3731 120.318 17.8444 119.274 16.7869C118.227 15.7294 117.705 14.3499 117.705 12.6487C117.705 10.9636 118.253 9.57552 119.348 8.48478C120.442 7.39452 121.837 6.8501 123.529 6.8501C125.137 6.8501 126.486 7.38692 127.573 8.46055C128.659 9.53419 129.202 10.8724 129.202 12.4748Z" fill="#8491A0"/>
<path d="M150.68 17.6811C150.663 17.8788 150.53 17.9771 150.281 17.9771H144.906C144.657 17.9771 144.524 17.8788 144.508 17.6811C144.492 17.55 144.682 17.4346 145.08 17.3353C145.594 17.2203 145.955 17.0935 146.163 16.9538C146.37 16.8137 146.474 15.9296 146.474 14.3016V11.0954C146.474 10.0916 146.35 9.36 146.101 8.89967C145.769 8.27497 145.13 7.96238 144.184 7.96238C143.388 7.96238 142.707 8.20514 142.144 8.69017C141.579 9.17568 141.298 9.77141 141.298 10.4788V14.3016C141.314 15.2883 141.322 15.8308 141.322 15.9296C141.356 16.522 141.455 16.8669 141.621 16.9657C141.786 17.065 142.144 17.1795 142.691 17.3111C143.089 17.4099 143.279 17.5329 143.264 17.6811C143.247 17.8788 143.114 17.9771 142.866 17.9771H137.49C137.241 17.9771 137.108 17.8788 137.092 17.6811C137.075 17.55 137.266 17.4346 137.664 17.3353C138.178 17.2203 138.538 17.0935 138.747 16.9538C138.954 16.8137 139.058 15.9296 139.058 14.3016V11.0954C139.058 10.0916 138.934 9.36 138.684 8.89967C138.353 8.27497 137.714 7.96238 136.768 7.96238C135.971 7.96238 135.292 8.20514 134.728 8.69017C134.164 9.17568 133.882 9.77141 133.882 10.4788V14.3016C133.882 15.9629 133.989 16.8507 134.205 16.9657C134.321 17.0317 134.677 17.1386 135.275 17.2864C135.673 17.4013 135.864 17.5329 135.848 17.6811C135.83 17.8788 135.698 17.9771 135.45 17.9771H130.074C129.825 17.9771 129.692 17.8783 129.676 17.6802C129.659 17.5486 129.858 17.4417 130.272 17.3586C130.787 17.2598 131.144 17.1239 131.343 16.951C131.542 16.7781 131.642 15.8916 131.642 14.2925V9.56951C131.642 9.12438 131.601 8.83174 131.517 8.6916C131.434 8.55193 131.185 8.48162 130.77 8.48162C130.14 8.48162 129.825 8.38281 129.825 8.18518C129.825 7.97093 130.023 7.82224 130.421 7.73958C131.382 7.54195 132.327 7.27022 133.254 6.92342C133.404 6.89064 133.503 6.87402 133.553 6.87402C133.702 6.87402 133.793 6.98186 133.827 7.19611C133.842 7.34433 133.859 7.76476 133.876 8.45692C134.24 7.98661 134.774 7.60513 135.479 7.31297C136.183 7.02081 136.908 6.87402 137.653 6.87402C139.377 6.87402 140.454 7.50917 140.885 8.77853C141.879 7.50917 143.27 6.87402 145.06 6.87402C146.419 6.87402 147.355 7.24409 147.869 7.98471C148.432 8.79088 148.713 10.0574 148.713 11.7842V13.0184V14.3011C148.713 15.2384 148.722 15.7814 148.738 15.9291C148.772 16.522 148.871 16.8669 149.037 16.9657C149.203 17.0645 149.56 17.1795 150.108 17.3111C150.505 17.4099 150.696 17.5329 150.68 17.6811Z" fill="#8491A0"/>
<path d="M152.905 16.5649C152.857 16.5464 152.79 16.5369 152.702 16.5369H152.617V16.9222H152.754C152.835 16.9222 152.898 16.9056 152.944 16.8728C152.99 16.8405 153.013 16.7882 153.013 16.7155C153.013 16.6433 152.977 16.593 152.905 16.5649ZM152.268 17.63V16.3032C152.351 16.3032 152.475 16.3037 152.639 16.3041C152.805 16.3046 152.896 16.3056 152.915 16.3065C153.02 16.3141 153.108 16.3369 153.178 16.3749C153.297 16.4395 153.356 16.5455 153.356 16.6913C153.356 16.8029 153.325 16.8832 153.262 16.9326C153.2 16.9825 153.122 17.012 153.031 17.022C153.115 17.0391 153.178 17.0647 153.22 17.0984C153.299 17.1616 153.338 17.2609 153.338 17.3963V17.5146C153.338 17.5274 153.339 17.5407 153.341 17.5535C153.343 17.5664 153.346 17.5797 153.351 17.5925L153.363 17.63H153.029C153.018 17.5873 153.011 17.5265 153.007 17.4462C153.004 17.3664 152.996 17.3122 152.985 17.2842C152.968 17.2376 152.935 17.2053 152.887 17.1868C152.861 17.1759 152.821 17.1687 152.768 17.1654L152.691 17.1607H152.617V17.63H152.268ZM152.088 16.2709C151.896 16.4657 151.8 16.6965 151.8 16.964C151.8 17.2414 151.898 17.4766 152.093 17.6704C152.287 17.8642 152.521 17.9611 152.796 17.9611C153.069 17.9611 153.303 17.8638 153.497 17.669C153.691 17.4728 153.788 17.2381 153.788 16.964C153.788 16.6975 153.691 16.4666 153.498 16.2709C153.303 16.0718 153.069 15.9721 152.796 15.9721C152.519 15.9721 152.283 16.0718 152.088 16.2709ZM153.639 17.8229C153.405 18.0481 153.124 18.1607 152.796 18.1607C152.457 18.1607 152.172 18.0457 151.939 17.8148C151.707 17.5844 151.591 17.3008 151.591 16.964C151.591 16.6144 151.717 16.3236 151.967 16.0923C152.202 15.8756 152.479 15.7673 152.796 15.7673C153.128 15.7673 153.412 15.8842 153.647 16.1184C153.882 16.3521 154 16.6343 154 16.964C154 17.3041 153.88 17.5901 153.639 17.8229Z" fill="#8491A0"/>
</g>
<defs>
<clipPath id="clip0_2370_517">
<rect width="154" height="25" fill="white"/>
</clipPath>
</defs>
</svg>
